<svg xmlns="http://www.w3.org/2000/svg" width="99" height="96" viewBox="0 0 99 96" fill="none">
  <g clip-path="url(#clip0_3540_28043)">
    <path d="M46.9067 34.3533C49.9316 32.4526 53.7812 31.9697 57.2021 32.9722C61.8707 34.2471 66.5394 35.5335 71.208 36.8064C71.4418 36.8644 71.5422 37.1155 71.6909 37.2816C74.061 40.629 76.4813 43.9417 78.8378 47.2988C76.1664 48.4288 73.1493 48.8074 70.3176 48.0869C67.5612 47.4901 65.3302 45.6782 62.9775 44.2392C60.7176 42.8504 58.5754 41.1873 56.0373 40.3316C52.3094 39.105 48.1024 39.3677 44.5811 41.1158C42.4023 42.2864 40.4224 43.7814 38.3208 45.0775C37.2816 45.7188 35.8658 44.6699 36.1555 43.4975C36.4356 42.6495 36.7833 41.8228 37.1503 41.0096C37.4458 40.3142 38.0658 39.8448 38.6917 39.4604C41.4345 37.7645 44.1658 36.0512 46.9067 34.3533Z" fill="#FDF0EA"/>
    <path d="M26.2233 41.1022C27.7589 40.7449 29.3409 40.5826 30.8939 40.2871C30.3028 41.6952 29.9397 43.2386 30.1579 44.7684C30.4805 47.0515 31.8674 49.2091 33.9168 50.3063C35.6185 51.2624 37.7027 51.5444 39.5899 51.0364C41.0984 50.6424 42.3385 49.6572 43.6269 48.8325C44.9655 47.9768 46.2442 47.0148 47.6794 46.3253C49.611 45.4445 51.8593 45.4078 53.8836 45.9795C55.9717 46.6575 57.6753 48.0965 59.5335 49.2149C61.6467 50.4473 63.5976 51.9694 65.8595 52.9352C67.4144 53.6421 69.0852 54.0516 70.7696 54.3104C71.2409 55.9388 70.9743 57.909 69.7632 59.1549C66.3231 56.835 62.8597 54.5461 59.4196 52.2243C58.7416 51.7781 58.0114 51.3146 57.1712 51.301C56.0779 51.3377 54.9615 51.9018 54.4573 52.9043C53.6924 54.1946 54.1792 55.9987 55.4173 56.8138C58.9386 59.209 62.514 61.523 66.0391 63.9124C65.7455 64.8202 64.8821 65.3147 63.9627 65.3475C60.3834 62.8983 56.7385 60.5514 53.1496 58.1157C52.3017 57.4995 51.1891 57.0939 50.1653 57.513C48.6625 57.9225 47.7199 59.6455 48.1642 61.1348C48.3786 62.1411 49.244 62.7959 50.061 63.3194C52.8754 65.1834 55.6723 67.0725 58.4905 68.9287C57.6927 69.2185 56.8448 69.3459 56.0007 69.3768C55.5023 69.1991 55.0793 68.8708 54.6234 68.6119C51.9733 67.0222 49.3251 65.4248 46.6691 63.8428C45.9738 63.4024 45.1142 63.2537 44.3145 63.4585C42.6611 63.7868 41.6045 65.7493 42.1743 67.3216C42.4119 68.0962 42.9953 68.7066 43.6752 69.1199C45.742 70.3697 47.8242 71.5962 49.8852 72.8556C48.3902 73.1434 46.8275 73.2265 45.3402 72.8498C43.1382 72.3438 41.2124 71.1172 39.219 70.1089C32.076 66.3269 25.0836 62.2628 17.9136 58.529C18.0584 51.9037 21.1219 45.3517 26.2233 41.1022Z" fill="#FDF0EA"/>
    <path d="M87.8118 21.5314C88.5169 21.0717 89.4228 21.008 90.2147 21.2726C91.7137 21.7091 92.6717 23.463 92.2024 24.9581C92.0034 25.6901 91.5089 26.3121 90.8734 26.7139C86.4385 29.5282 81.9379 32.2421 77.5242 35.0873C79.7146 38.0948 81.8471 41.1429 84.0221 44.1619C85.2139 43.3835 86.3883 42.578 87.5878 41.8093C88.3855 41.2877 89.4228 41.0675 90.3306 41.4268C91.8875 41.9271 92.7548 43.8799 92.098 45.375C91.6364 46.6537 90.2766 47.181 89.2605 47.9324C86.2164 49.8736 83.3383 52.1819 79.9059 53.42C78.9343 53.7793 77.9202 54.0072 76.9061 54.2178C74.8914 54.6311 72.7976 54.6157 70.7694 54.3105C69.0851 54.0517 67.4143 53.6422 65.8593 52.9352C63.5974 51.9694 61.6465 50.4473 59.5334 49.215C57.6752 48.0966 55.9715 46.6575 53.8835 45.9796C51.8592 45.4078 49.6108 45.4445 47.6792 46.3253C46.244 47.0149 44.9653 47.9768 43.6267 48.8325C42.3384 49.6573 41.0983 50.6424 39.5897 51.0365C37.7026 51.5445 35.6184 51.2625 33.9166 50.3063C31.8672 49.2092 30.4803 47.0516 30.1578 44.7685C29.9395 43.2386 30.3026 41.6953 30.8937 40.2872C31.3921 39.0587 31.8595 37.7877 32.7017 36.7427C33.8664 35.1491 35.6821 34.2741 37.2911 33.2137C39.6786 31.7669 42.0197 30.2429 44.4206 28.8174C46.7714 27.4518 49.464 26.8047 52.1431 26.484C54.5595 26.287 56.9856 26.6733 59.3228 27.2682C63.7616 28.5141 68.2236 29.6808 72.6566 30.9441C77.7425 27.8651 82.7453 24.6452 87.8118 21.5314ZM46.9066 34.3533C44.1657 36.0512 41.4344 37.7645 38.6915 39.4604C38.0657 39.8448 37.4457 40.3142 37.1501 41.0096C36.7831 41.8228 36.4354 42.6495 36.1554 43.4975C35.8656 44.6699 37.2815 45.7188 38.3207 45.0775C40.4222 43.7814 42.4021 42.2864 44.5809 41.1158C48.1022 39.3677 52.3092 39.105 56.0372 40.3316C58.5753 41.1873 60.7174 42.8504 62.9774 44.2392C65.3301 45.6782 67.5611 47.4901 70.3174 48.0869C73.1492 48.8074 76.1663 48.4288 78.8377 47.2988C76.4811 43.9417 74.0609 40.6291 71.6908 37.2816C71.5421 37.1155 71.4416 36.8644 71.2079 36.8064C66.5393 35.5335 61.8706 34.2471 57.202 32.9722C53.7811 31.9697 49.9314 32.4526 46.9066 34.3533Z" fill="#62D3D4"/>
    <path d="M98.6382 96C98.6556 95.9826 98.6884 95.9498 98.7039 95.9324V96H98.6382Z" fill="#27ADCA"/>
    <path d="M7.61232 29.4413C8.44677 28.9989 9.44347 29.1612 10.2818 29.5031C15.1088 31.3033 19.9281 33.1248 24.7513 34.9366C25.0353 35.0467 25.3424 35.1259 25.6476 35.0467C28.8811 34.5001 32.1165 33.9593 35.35 33.4146C35.9912 33.3122 36.6345 33.1461 37.2912 33.2137C35.6822 34.2741 33.8665 35.1491 32.7017 36.7427C31.8596 37.7877 31.3921 39.0587 30.8938 40.2872C29.3408 40.5827 27.7588 40.7449 26.2232 41.1023C21.1219 45.3518 18.0584 51.9037 17.9135 58.5291C25.0836 62.2628 32.0759 66.3269 39.2189 70.109C41.2123 71.1173 43.1381 72.3438 45.3401 72.8499C46.8275 73.2265 48.3901 73.1435 49.8852 72.8557C47.8242 71.5963 45.7419 70.3697 43.6751 69.12C42.9952 68.7066 42.4118 68.0962 42.1743 67.3217C41.6044 65.7494 42.661 63.7869 44.3145 63.4585C45.1141 63.2537 45.9737 63.4025 46.6691 63.8429C49.325 65.4249 51.9732 67.0223 54.6234 68.612C55.0792 68.8708 55.5022 69.1992 56.0006 69.3769C56.8447 69.346 57.6927 69.2185 58.4904 68.9288C55.6722 67.0725 52.8753 65.1834 50.0609 63.3194C49.2439 62.796 48.3785 62.1412 48.1641 61.1348C47.7199 59.6455 48.6625 57.9226 50.1652 57.5131C51.189 57.0939 52.3016 57.4995 53.1496 58.1157C56.7384 60.5515 60.3834 62.8983 63.9626 65.3476C64.882 65.3148 65.7455 64.8203 66.0391 63.9124C62.5139 61.523 58.9385 59.209 55.4172 56.8138C54.1791 55.9987 53.6923 54.1946 54.4572 52.9043C54.9614 51.9018 56.0778 51.3378 57.1711 51.3011C58.0114 51.3146 58.7415 51.7782 59.4195 52.2244C62.8597 54.5461 66.323 56.8351 69.7632 59.1549C70.9743 57.909 71.2408 55.9388 70.7695 54.3105C72.7977 54.6157 74.8915 54.6311 76.9062 54.2178C77.2616 57.0495 76.6628 60.0705 74.9398 62.3826C74.1865 63.4334 73.1222 64.2292 71.9652 64.7894C71.6503 66.6051 70.729 68.3338 69.2919 69.5063C68.0614 70.5262 66.5123 71.1462 64.9265 71.3104C63.1475 73.7886 60.1689 75.1736 57.1673 75.3571C56.6283 75.2972 56.4159 75.8612 56.0605 76.1471C53.7561 78.3742 50.4376 79.2203 47.3026 79.1295C44.6506 79.1024 42.0584 78.3221 39.6864 77.1709C31.2975 72.8151 23.123 68.0615 14.7399 63.6961C13.1656 62.794 11.3615 62.4483 9.6714 61.8321C8.42939 61.3936 6.89377 61.1271 6.21772 59.8503C5.24226 58.3263 6.06898 55.9987 7.83446 55.5158C9.25997 55.0175 10.6333 55.8442 11.9796 56.217C12.5359 50.6656 14.6858 45.288 18.1009 40.8782C18.4891 40.349 18.9546 39.8834 19.3216 39.3387C15.4778 37.9229 11.6436 36.4819 7.81321 35.0294C6.97104 34.7454 6.26407 34.081 5.98786 33.2291C5.4219 31.8017 6.19067 30.0169 7.61232 29.4413Z" fill="#E86731"/>
  </g>
  <defs>
    <clipPath id="clip0_3540_28043">
      <rect width="98.7042" height="96" fill="white"/>
    </clipPath>
  </defs>
</svg>