<svg xmlns="http://www.w3.org/2000/svg" width="105" height="103" viewBox="0 0 105 103" fill="none">
  <g clip-path="url(#clip0_3540_28058)">
    <path d="M19.5301 9.23287C23.2758 8.62979 27.2224 9.31287 30.5476 11.1406C35.3907 13.7375 38.8183 18.7324 39.565 24.1703C39.7209 25.5365 39.8953 26.9231 39.6922 28.2954C39.2983 31.12 38.0573 33.7334 36.6686 36.1949C34.0224 40.8841 30.7424 45.2062 28.3835 50.0616C27.8789 51.079 27.7578 52.2236 27.524 53.3211C27.2594 54.5683 27.0071 55.8175 26.7445 57.0667C27.2368 57.1283 28.2337 56.8636 28.2399 57.639C28.2768 58.798 28.2707 59.959 28.2399 61.118C28.1866 62.9908 26.5189 64.6236 24.6501 64.6585C22.8799 64.679 21.1096 64.6626 19.3373 64.6667C17.9486 64.7159 16.5701 63.92 15.9301 62.6831C15.2819 61.52 15.5342 60.1477 15.4809 58.878C15.5158 58.3262 15.3742 57.7252 15.6327 57.2144C16.1168 56.9929 16.6686 57.0995 17.1814 57.0708C16.7548 55.2595 16.324 53.4483 15.9014 51.637C15.7845 51.1159 15.604 50.6113 15.3537 50.1416C12.445 44.3939 9.05219 38.8924 6.4204 33.0052C5.65732 31.157 4.8204 29.2903 4.5927 27.2841C4.39168 23.1836 5.79886 19.079 8.29937 15.8421C11.0358 12.3344 15.1363 9.9262 19.5301 9.23287ZM21.1424 10.839C20.2112 11.8031 19.7127 13.0852 19.2737 14.3303C18.0901 17.9016 17.6491 21.68 17.5486 25.4298C17.4542 28.1765 17.8707 30.9006 18.2501 33.6124C19.0378 39.1118 20.1168 44.5621 20.9578 50.0513C21.7681 50.0513 22.5783 50.0513 23.3886 50.0513C24.324 42.6339 26.4512 35.3826 26.7917 27.8913C26.8327 23.8483 26.5865 19.7683 25.6081 15.8339C25.1342 14.1375 24.6378 12.3713 23.5178 10.9724C23.2245 10.5806 22.7445 10.4165 22.3158 10.2216C21.9055 10.3857 21.4481 10.4965 21.1424 10.839ZM16.1476 13.6452C14.3219 15.9631 13.2409 18.798 12.6645 21.6718C12.164 24.3631 11.924 27.1775 12.6255 29.8544C14.2399 36.7426 16.9701 43.2944 19.0337 50.0472C19.2594 50.0493 19.483 50.0513 19.7086 50.0534C18.6604 43.2882 17.2737 36.5724 16.5045 29.7662C16.0881 26.1559 16.3486 22.4985 16.9004 18.917C17.3722 16.1026 18.0696 13.2575 19.5773 10.8C18.2563 11.5077 17.0871 12.48 16.1476 13.6452ZM24.9537 10.8554C25.8768 12.3426 26.4163 14.0226 26.8389 15.7088C27.7332 19.4236 28.0224 23.2575 28.045 27.0688C27.8973 34.8739 25.5794 42.4062 24.6337 50.117C24.966 50.0924 25.2204 49.9406 25.2573 49.5898C26.3445 45.7026 28.0183 42.0185 29.4891 38.2688C30.726 35.1139 31.9199 31.8893 32.2789 28.4985C32.5968 24.2585 31.8317 19.8893 29.9014 16.0862C28.7855 13.9283 27.1424 11.9795 24.9537 10.8554ZM10.7548 14.999C7.80706 17.8031 6.03065 21.7765 5.80911 25.8298C5.6286 28.1806 6.66655 30.3713 7.55886 32.48C10.2645 38.5129 13.7517 44.1457 16.7055 50.0513C17.0501 50.0513 17.3948 50.0513 17.7394 50.0513C16.2276 45.1754 14.406 40.4041 12.9086 35.5241C12.1353 32.999 11.3558 30.4554 11.0132 27.8298C10.8286 25.4216 11.0953 22.9908 11.6163 20.638C12.406 17.0749 14.0266 13.5549 16.8389 11.1426C14.5845 12.0144 12.4471 13.2513 10.7548 14.999ZM27.6696 11.1857C30.3917 13.5283 31.9671 16.9293 32.8307 20.357C33.6307 23.76 33.9035 27.3436 33.1794 30.7857C31.7353 37.4749 28.2707 43.4934 26.4101 50.0534C26.564 50.0513 26.8717 50.0493 27.0255 50.0472C29.4173 44.837 32.9455 40.2667 35.7599 35.2903C36.8553 33.2862 37.8686 31.2 38.324 28.9477C38.7486 27.0831 38.4717 25.157 38.1476 23.3006C37.0645 17.8031 32.9455 13.0626 27.6696 11.1857ZM17.0891 51.2821C17.5424 53.2144 17.9896 55.1467 18.4512 57.0749C20.7937 57.0749 23.1363 57.079 25.4789 57.0729C25.6963 56.0308 25.9117 54.9908 26.123 53.9488C24.0676 53.9508 22.0101 53.9406 19.9548 53.957C19.5691 53.9467 19.1732 53.9693 18.7999 53.8565C18.4983 53.598 18.5004 53.079 18.7896 52.8144C19.165 52.6954 19.565 52.718 19.9527 52.7098C22.0942 52.7241 24.2378 52.718 26.3814 52.7159C26.4778 52.2359 26.5763 51.76 26.6748 51.2821C23.4789 51.2821 20.285 51.2821 17.0891 51.2821ZM16.7219 58.3057C16.7404 59.3067 16.6666 60.3098 16.7609 61.3067C16.8922 62.4677 17.9527 63.4072 19.1178 63.4195C20.9004 63.4524 22.683 63.4359 24.4655 63.4298C25.5281 63.4483 26.5763 62.7529 26.8799 61.717C27.1589 60.6052 26.966 59.4421 27.0214 58.3098C23.5876 58.3057 20.1537 58.3118 16.7219 58.3057Z" fill="#E86731"/>
    <path d="M44.7878 28.9251C45.2309 28.6359 45.8914 28.9518 45.7642 29.52C45.4175 32.9231 44.2709 36.24 42.4842 39.1549C41.6924 40.3979 40.7427 41.5303 39.9119 42.7467C38.0165 45.479 36.4801 48.4677 35.4237 51.6226C35.3683 52.0636 34.7632 52.2708 34.4596 51.9446C34.1663 51.7497 34.2216 51.3764 34.3119 51.0913C35.5755 47.1774 37.6637 43.5774 40.1416 40.3118C42.5252 37.2841 43.9919 33.5774 44.4924 29.7682C44.5498 29.479 44.5334 29.1303 44.7878 28.9251Z" fill="#E86731"/>
    <path d="M60.8616 38.0308C61.079 37.6534 61.239 37.0154 61.7908 37.079C62.1949 37.0893 62.3754 37.4913 62.5867 37.7703C63.7805 39.6082 65.2472 41.2677 66.921 42.6811C68.2564 43.8626 69.598 45.0687 70.601 46.5559C71.5528 47.8831 72.2421 49.3744 72.8205 50.8964C73.3928 52.4472 74.3569 53.8359 75.5344 54.9887C76.3467 55.8134 77.161 56.6503 77.8072 57.6144C78.919 59.2246 79.5898 61.0893 80.078 62.9723C80.6462 64.878 80.9128 66.9867 82.2585 68.5457C83.4769 69.9898 84.7898 71.3908 86.3262 72.5067C88.1498 73.4811 90.0657 74.3939 91.5118 75.918C94.3282 78.7775 97.04 81.8134 100.39 84.0657C100.919 84.5046 100.347 85.3149 99.7416 85.1323C98.2195 84.917 96.7446 84.4185 95.2082 84.2749C93.4503 83.9734 91.6616 84.0616 89.8872 84.0554C84.0534 84.2811 78.2195 84.0369 72.3857 84.0431C72.6134 84.4923 72.5867 84.9375 72.2257 85.3026C72.4595 86.0677 72.8 86.798 72.9805 87.5775C72.9887 88.0657 72.3939 88.3303 72.0205 88.0452C70.5416 87.1918 68.9252 86.5539 67.2082 86.437C67.1877 87.3005 67.2369 88.1641 67.1857 89.0277C67.2698 89.6985 66.078 89.7887 66.0021 89.1652C65.9159 88.2728 65.9877 87.3723 65.9672 86.478C64.4041 86.679 62.8451 87.0749 61.4523 87.8298C61.12 87.9631 60.7816 88.2523 60.4041 88.119C60.1026 88.0554 59.9159 87.6862 60.0164 87.4072C60.2667 86.6811 60.6277 86 60.9252 85.2944C60.4452 84.8923 60.6646 84.3262 60.8554 83.8421C59.5775 83.8523 58.2975 83.8462 57.0195 83.8462C57.2595 84.4718 57.5857 85.0708 57.7334 85.7293C57.7252 86.0985 57.2903 86.197 57.0503 86.3918C57.4544 87.4852 57.9323 88.5518 58.3057 89.6575C58.5067 90.08 57.9508 90.6257 57.5467 90.3857C56.3775 89.7498 55.2267 89.0523 53.9446 88.6646C52.7754 88.2626 51.5385 88.1293 50.3098 88.0575C50.2769 89.3354 50.3652 90.6195 50.2687 91.8954C50.1908 92.4431 49.1877 92.4472 49.1057 91.8975C49.0175 90.6236 49.0995 89.3436 49.0646 88.0698C46.6236 88.2975 44.2893 89.1364 42.1272 90.2667C41.7313 90.5662 41.0564 90.3795 41.0236 89.8359C41.3744 88.6585 41.9159 87.5467 42.3241 86.3877C42.1252 86.1477 41.7169 85.8995 41.8975 85.5303C42.158 84.7221 42.5005 83.9405 42.7939 83.1426C40.9826 82.9949 39.1487 83.1426 37.3805 83.559C34.2154 84.238 30.9559 84.2318 27.7375 84.08C24.9436 83.8708 22.1395 83.8236 19.3416 83.7026C18.0369 83.5898 16.7241 83.6328 15.4236 83.7662C13.5898 83.9528 11.7436 83.9754 9.90361 84.039C9.56925 84.0718 9.24105 83.9323 9.10156 83.6144C9.01335 83.2452 9.30669 82.9559 9.51182 82.6954C12.0103 79.9262 14.3795 77.04 17.038 74.4185C17.961 73.4954 19.1241 72.8677 20.3159 72.3631C21.5077 71.7067 22.7077 71.0667 23.9016 70.4144C25.2123 69.5877 26.6708 68.8062 27.4708 67.4175C28.3159 65.9713 29.1569 64.5087 30.2708 63.2513C32.3446 60.8739 34.9272 58.9805 36.8041 56.4267C37.198 56.0411 37.4975 55.2431 38.1662 55.4134C38.4493 55.5426 38.5375 55.877 38.6626 56.1375C39.6575 58.7098 40.4349 61.358 41.3026 63.9734C42.2113 64.4246 43.118 64.8759 43.9959 65.3805C44.3918 64.9867 44.8267 64.6134 45.0954 64.117C46.1046 62.3405 47.1098 60.56 48.1682 58.8123C49.3457 56.9046 49.36 54.5087 50.6421 52.6523C51.3518 51.5323 52.3816 50.6811 53.3087 49.7559C54.1949 48.8759 54.6072 47.6657 54.9908 46.5087C55.5139 44.9313 56.2031 43.3498 57.401 42.1621C58.6605 40.8882 60.1108 39.7046 60.8616 38.0308ZM61.8482 38.8944C61.2185 39.9795 60.4349 40.9682 59.5159 41.8216C58.6831 42.6318 57.7867 43.4154 57.2308 44.4554C56.3528 45.9036 56.0513 47.6 55.2985 49.1036C54.3446 51.0093 52.238 52.0062 51.3169 53.9364C50.4759 55.7108 50.2749 57.7416 49.2144 59.4195C48.1375 61.2246 47.1159 63.0646 46.0657 64.8862C45.4667 65.8277 44.5744 66.5293 43.8236 67.3436C41.4913 69.7046 38.5539 71.3539 36.238 73.7293C34.7405 75.239 33.7539 77.1405 32.519 78.8513C31.559 80.2975 30.4082 81.6 29.2431 82.88C31.6944 83.0072 34.16 82.9046 36.5744 82.4431C38.4985 82.039 40.4554 81.7764 42.4246 81.8441C43.4523 79.3559 44.2749 76.7754 45.5262 74.3877C46.2769 73.7805 47.3108 73.4729 47.8113 72.5846C48.4369 71.3928 48.5477 70.0041 49.1282 68.7918C49.2739 68.3016 50.0841 68.2975 50.2441 68.7795C50.9026 70.1395 51.0605 71.7436 52.0164 72.9559C52.5375 73.6452 53.3887 73.9159 54.0698 74.398C54.5252 75.28 54.7775 76.2503 55.1939 77.1508C55.8503 78.5436 56.3221 80.0103 56.8123 81.4667C57.0605 81.9159 56.6359 82.2585 56.4 82.5929C58.078 82.6318 59.7559 82.6175 61.4339 82.6031C61.3641 82.3262 61.2862 82.0534 61.2062 81.7805C61.4872 80.9744 61.881 80.2072 62.0698 79.3703C62.2503 78.5723 62.7221 77.8811 62.9292 77.0913C63.0462 76.7959 63.0687 76.439 63.2923 76.199C63.8626 75.8113 64.6421 75.6472 64.9846 74.9908C65.4421 74.1354 65.5734 73.1467 66.0144 72.2831C66.1457 71.877 66.7569 71.7703 67.0277 72.1026C67.6205 73.0995 67.6021 74.3713 68.3303 75.2985C68.7631 75.8482 69.639 75.9098 69.9098 76.599C70.3795 77.7211 71.0134 78.7775 71.2636 79.9795C71.4441 80.7877 72.3241 81.6411 71.6534 82.4267C71.719 82.5559 71.7867 82.6893 71.8564 82.8205C76.7057 82.7939 81.5528 82.9518 86.4021 82.9149C90.0882 82.8123 93.8113 82.6318 97.4462 83.3805C96.0882 82.2667 94.8144 81.0564 93.5631 79.8236C92.2605 78.4554 90.9969 77.038 89.5221 75.8503C88.0575 74.6585 86.1969 74.0739 84.7549 72.8513C83.3621 71.6308 82.0575 70.3057 80.9313 68.8349C79.7805 67.278 79.4708 65.3211 78.9436 63.5057C78.4657 61.6739 77.8421 59.8441 76.7446 58.2831C75.5508 56.5559 73.8195 55.2677 72.7344 53.4585C71.7046 51.8585 71.2841 49.9611 70.2934 48.3405C68.9128 45.84 66.5559 44.1436 64.5744 42.1641C63.5528 41.1734 62.6585 40.0616 61.8482 38.8944ZM34.5477 60.7631C33.4359 61.7641 32.3405 62.7877 31.3395 63.9036C30.1846 65.198 29.3354 66.72 28.439 68.1929C27.8851 69.1098 27.0831 69.8523 26.1846 70.4246C24.4657 71.5528 22.6626 72.5477 20.8267 73.4667C19.6616 73.9323 18.5559 74.5703 17.6821 75.4811C15.3826 77.8113 13.2144 80.2667 11.118 82.7795C11.9857 82.7631 12.8534 82.72 13.719 82.6359C14.3508 81.8175 14.9846 81.0011 15.6267 80.1908C15.8975 79.8093 16.3385 79.6287 16.761 79.4728C18.3898 78.8718 20.0041 78.2298 21.6328 77.6267C22.5867 77.2944 23.2821 76.5293 24.0821 75.9467C25.4482 74.8308 26.919 73.8503 28.3098 72.7672C29.8051 71.239 30.5498 69.1816 31.44 67.28C31.6575 66.6011 32.8287 67.0257 32.5621 67.6882C31.961 69.3949 31.1221 71.0277 30.1375 72.5457C29.3498 73.8195 27.9939 74.5293 26.8451 75.4257C25.6493 76.2687 24.5169 77.1959 23.3723 78.1067C22.7693 78.6011 22.0041 78.8123 21.2903 79.0934C19.9672 79.6021 18.6482 80.1211 17.321 80.6175C16.3836 80.9005 15.9651 81.8626 15.3518 82.5375C16.6093 82.3754 17.8769 82.4082 19.1405 82.4821C21.881 82.5518 24.6195 82.6975 27.36 82.8246C28.6482 81.6103 29.8687 80.3098 30.9026 78.8677C32.1436 77.0934 33.2062 75.1836 34.6441 73.5508C37.0769 70.7057 40.4636 68.9231 43.0544 66.2441C42.1826 65.76 41.2431 65.399 40.3959 64.8698C40.041 64.3262 39.9323 63.6698 39.719 63.0646C39.0769 61.118 38.4759 59.157 37.7744 57.2308C36.7713 58.4718 35.7313 59.6903 34.5477 60.7631ZM48.718 73.4872C48.2441 74.1846 47.5077 74.6318 46.7959 75.0503C46.3036 75.2698 46.1805 75.8339 45.9693 76.2749C45.3252 77.7108 44.8657 79.2164 44.2318 80.6523C44.4636 80.8718 44.8862 81.0482 44.7528 81.4482C44.5313 82.4698 43.9795 83.3805 43.6328 84.3611C43.8503 84.6277 44.2769 84.8944 44.0616 85.2923C43.6923 86.3939 43.2205 87.4605 42.8144 88.5498C44.9087 87.5631 47.1713 86.9867 49.4769 86.7898C51.9098 86.759 54.3118 87.3641 56.5005 88.4103C56.1149 87.3026 55.5959 86.2421 55.2718 85.1159C55.1672 84.7118 55.6657 84.558 55.8975 84.3467C55.4503 83.3252 54.9457 82.318 54.6298 81.2472C54.4821 80.839 54.9026 80.6564 55.1487 80.439C54.5375 78.6729 53.7621 76.9703 53.0893 75.2267C52.3795 74.8575 51.6451 74.478 51.1282 73.8523C50.4 73.0257 50.0677 71.9569 49.721 70.9334C49.4523 71.8072 49.2369 72.72 48.718 73.4872ZM64.2503 77.1118C63.7416 78.3282 63.4257 79.6103 62.9251 80.8287C62.9805 80.9641 63.0892 81.2349 63.1446 81.3703C62.8903 82.1293 62.6236 82.8821 62.3672 83.6411C62.4431 83.7682 62.5969 84.0205 62.6728 84.1477C62.5498 84.9149 62.1149 85.5877 61.8359 86.3036C62.8513 85.9549 63.8687 85.5836 64.9313 85.3969C67.0564 84.9723 69.278 85.3621 71.2369 86.2482C71.0195 85.3436 70.3036 84.4452 70.6523 83.4934C70.4103 82.7344 69.9939 82.037 69.8195 81.2575C69.9344 81.0626 70.0534 80.8718 70.1785 80.6852C69.719 79.4913 69.3928 78.2482 68.7877 77.1159C67.6431 76.679 66.841 75.6677 66.5518 74.4923C66.2441 75.6821 65.4175 76.6831 64.2503 77.1118Z" fill="#62D3D4"/>
    <path d="M62.4924 48.8986C62.8145 48.6791 63.1509 48.1806 63.5816 48.4432C63.8606 48.636 64.0965 49.075 63.795 49.3519C62.3816 50.6873 60.9191 52.0083 59.8052 53.6145C59.3129 54.3016 59.3704 55.2391 58.8042 55.8852C57.5447 57.4729 55.758 58.5088 54.0186 59.4893C54.0063 61.1304 54.0309 62.7714 54.0145 64.4124C54.0042 64.7263 54.0063 65.2124 53.5837 65.2493C53.1673 65.395 52.7201 65.0729 52.7919 64.6237C52.7611 62.8432 52.7796 61.0606 52.7816 59.2781C52.675 58.6647 53.3273 58.4637 53.7375 58.2093C55.0934 57.4237 56.4596 56.5929 57.557 55.4606C58.2196 54.8288 58.1909 53.8299 58.6852 53.0955C59.7191 51.5037 61.1078 50.1827 62.4924 48.8986Z" fill="#62D3D4"/>
    <path d="M18.5803 67.1303C18.8593 67.038 19.2306 66.7754 19.4972 67.0216C19.8911 67.2185 19.9854 67.9077 19.5157 68.0616C17.6203 68.9703 15.7413 69.959 14.1147 71.3108C13.6408 71.7765 13.0152 72.2688 13.0131 72.997C12.9475 74.7118 12.3854 76.4083 11.4111 77.8195C11.0808 78.3283 10.2275 77.9549 10.328 77.3703C10.7362 76.5395 11.2367 75.7416 11.4726 74.837C11.7331 74.0616 11.7147 73.237 11.8459 72.439C12.1598 71.2821 13.1506 70.5026 14.047 69.7867C15.4624 68.7529 16.9906 67.8708 18.5803 67.1303Z" fill="#E86731"/>
    <path d="M23.0767 90.9416C23.45 90.7857 23.8603 90.8226 24.2541 90.8164C29.5218 90.839 34.7916 90.7898 40.0572 90.839C40.81 90.7651 40.81 92.1518 40.0593 92.0841C34.5864 92.1252 29.1095 92.0964 23.6346 92.0985C22.9639 92.2359 22.6829 91.3887 23.0767 90.9416Z" fill="#612B15"/>
    <path d="M54.451 90.9149C54.8325 90.7815 55.2469 90.8267 55.6448 90.8164C66.9248 90.8369 78.2089 90.7938 89.4889 90.8369C90.2602 90.7405 90.2766 92.1559 89.5074 92.0841C78.0079 92.1251 66.5064 92.0944 55.0069 92.0985C54.2992 92.2872 53.9484 91.3313 54.451 90.9149Z" fill="#612B15"/>
    <path d="M92.6193 90.8985C94.1639 90.7283 95.7393 90.8473 97.2962 90.835C98.1023 90.7262 98.1085 92.1847 97.3064 92.0883C95.8541 92.1149 94.4018 92.1129 92.9495 92.0883C92.2993 92.1806 92.127 91.1734 92.6193 90.8985Z" fill="#612B15"/>
    <path d="M25.3208 93.1796C28.3095 93.0565 31.3126 93.1632 34.3054 93.1283C47.9874 93.1324 61.6695 93.1201 75.3515 93.1345C75.9895 93.0032 76.3013 93.8524 75.85 94.2483C75.3659 94.4391 74.8243 94.3365 74.3177 94.3611C58.1761 94.357 42.0346 94.357 25.8931 94.3611C25.612 94.3324 25.2387 94.396 25.0561 94.1252C24.8982 93.8155 24.9167 93.276 25.3208 93.1796Z" fill="#612B15"/>
    <path d="M21.1425 10.839C21.4482 10.4964 21.9056 10.3857 22.3159 10.2216C22.7446 10.4164 23.2246 10.5805 23.5179 10.9723C24.6379 12.3713 25.1343 14.1375 25.6082 15.8339C26.5866 19.7682 26.8328 23.8482 26.7918 27.8913C26.4513 35.3826 24.3241 42.6339 23.3887 50.0513C22.5784 50.0513 21.7682 50.0513 20.9579 50.0513C20.1169 44.5621 19.0379 39.1118 18.2502 33.6123C17.8707 30.9005 17.4543 28.1764 17.5487 25.4298C17.6492 21.68 18.0902 17.9016 19.2738 14.3303C19.7128 13.0851 20.2113 11.8031 21.1425 10.839Z" fill="#F09975"/>
    <path d="M10.7549 14.999C12.4472 13.2513 14.5846 12.0144 16.839 11.1426C14.0267 13.5549 12.4061 17.0749 11.6164 20.638C11.0954 22.9908 10.8287 25.4216 11.0133 27.8298C11.3559 30.4554 12.1354 32.999 12.9087 35.5241C14.4061 40.4041 16.2277 45.1754 17.7395 50.0513C17.3949 50.0513 17.0503 50.0513 16.7056 50.0513C13.7518 44.1457 10.2646 38.5128 7.55897 32.48C6.66666 30.3713 5.62871 28.1805 5.80922 25.8298C6.03076 21.7764 7.80717 17.8031 10.7549 14.999Z" fill="#F09975"/>
    <path d="M27.6696 11.1857C32.9455 13.0626 37.0645 17.8031 38.1476 23.3005C38.4717 25.157 38.7486 27.0831 38.324 28.9477C37.8686 31.2 36.8553 33.2862 35.7599 35.2903C32.9455 40.2667 29.4173 44.837 27.0255 50.0472C26.8717 50.0493 26.564 50.0513 26.4102 50.0534C28.2707 43.4934 31.7353 37.4749 33.1794 30.7857C33.9035 27.3436 33.6307 23.76 32.8307 20.357C31.9671 16.9293 30.3917 13.5282 27.6696 11.1857Z" fill="#F09975"/>
    <path d="M16.1478 13.6452C17.0872 12.48 18.2565 11.5077 19.5775 10.8C18.0698 13.2575 17.3724 16.1026 16.9006 18.917C16.3488 22.4985 16.0883 26.1559 16.5047 29.7662C17.2739 36.5724 18.6606 43.2882 19.7088 50.0534C19.4831 50.0513 19.2595 50.0493 19.0339 50.0472C16.9703 43.2944 14.2401 36.7426 12.6257 29.8544C11.9242 27.1775 12.1642 24.3631 12.6647 21.6718C13.2411 18.798 14.3221 15.9631 16.1478 13.6452Z" fill="#F4B9A0"/>
    <path d="M24.9538 10.8555C27.1425 11.9796 28.7856 13.9283 29.9015 16.0862C31.8317 19.8893 32.5969 24.2585 32.2789 28.4985C31.9199 31.8893 30.7261 35.1139 29.4892 38.2688C28.0184 42.0185 26.3446 45.7026 25.2574 49.5898C25.2205 49.9406 24.9661 50.0924 24.6338 50.117C25.5794 42.4062 27.8974 34.8739 28.0451 27.0688C28.0225 23.2575 27.7333 19.4237 26.8389 15.7088C26.4164 14.0226 25.8769 12.3426 24.9538 10.8555Z" fill="#F4B9A0"/>
    <path d="M61.8478 38.8944C62.6581 40.0616 63.5524 41.1734 64.574 42.1642C66.5555 44.1436 68.9124 45.8401 70.2929 48.3406C71.2837 49.9611 71.7042 51.8585 72.734 53.4585C73.8191 55.2677 75.5504 56.5559 76.7442 58.2831C77.8417 59.8442 78.4652 61.6739 78.9432 63.5057C79.4704 65.3211 79.7801 67.278 80.9309 68.8349C82.057 70.3057 83.3617 71.6308 84.7545 72.8513C86.1965 74.0739 88.057 74.6585 89.5217 75.8503C90.9965 77.038 92.2601 78.4554 93.5627 79.8236C94.814 81.0565 96.0878 82.2667 97.4458 83.3806C93.8109 82.6319 90.0878 82.8124 86.4017 82.9149C81.5524 82.9518 76.7052 82.7939 71.856 82.8206C71.7863 82.6893 71.7186 82.5559 71.6529 82.4267C72.3237 81.6411 71.4437 80.7877 71.2632 79.9795C71.0129 78.7775 70.3791 77.7211 69.9093 76.599C69.6386 75.9098 68.7627 75.8483 68.3299 75.2985C67.6017 74.3713 67.6201 73.0995 67.0273 72.1026C66.7565 71.7703 66.1452 71.877 66.014 72.2831C65.5729 73.1467 65.4417 74.1354 64.9842 74.9908C64.6417 75.6472 63.8622 75.8113 63.2919 76.199C63.0683 76.439 63.0458 76.796 62.9288 77.0913C62.7217 77.8811 62.2499 78.5724 62.0693 79.3703C61.8806 80.2072 61.4868 80.9744 61.2058 81.7806C61.2858 82.0534 61.3637 82.3262 61.4334 82.6031C59.7555 82.6175 58.0776 82.6319 56.3996 82.5929C56.6355 82.2585 57.0601 81.916 56.8119 81.4667C56.3216 80.0103 55.8499 78.5436 55.1934 77.1508C54.777 76.2503 54.5247 75.2801 54.0693 74.398C53.3883 73.916 52.537 73.6452 52.016 72.956C51.0601 71.7436 50.9022 70.1395 50.2437 68.7795C50.0837 68.2975 49.2734 68.3016 49.1278 68.7918C48.5473 70.0042 48.4365 71.3929 47.8109 72.5847C47.3104 73.4729 46.2765 73.7806 45.5258 74.3877C44.2745 76.7754 43.4519 79.3559 42.4242 81.8442C40.455 81.7765 38.4981 82.039 36.574 82.4431C34.1596 82.9047 31.694 83.0072 29.2427 82.8801C30.4078 81.6001 31.5586 80.2975 32.5186 78.8513C33.7534 77.1406 34.7401 75.239 36.2375 73.7293C38.5534 71.3539 41.4909 69.7047 43.8232 67.3436C44.574 66.5293 45.4663 65.8277 46.0652 64.8862C47.1155 63.0647 48.137 61.2247 49.214 59.4195C50.2745 57.7416 50.4755 55.7108 51.3165 53.9365C52.2376 52.0062 54.3442 51.0093 55.2981 49.1036C56.0509 47.6001 56.3524 45.9036 57.2304 44.4554C57.7863 43.4154 58.6827 42.6318 59.5155 41.8216C60.4345 40.9683 61.2181 39.9795 61.8478 38.8944ZM62.4919 48.8985C61.1073 50.1826 59.7186 51.5036 58.6847 53.0954C58.1904 53.8298 58.2191 54.8288 57.5565 55.4606C56.4591 56.5929 55.0929 57.4236 53.737 58.2093C53.3268 58.4636 52.6745 58.6647 52.7811 59.278C52.7791 61.0606 52.7606 62.8431 52.7914 64.6236C52.7196 65.0729 53.1668 65.3949 53.5832 65.2493C54.0058 65.2124 54.0037 64.7262 54.014 64.4124C54.0304 62.7713 54.0058 61.1303 54.0181 59.4893C55.7575 58.5088 57.5442 57.4729 58.8037 55.8852C59.3699 55.239 59.3124 54.3016 59.8047 53.6144C60.9186 52.0083 62.3811 50.6872 63.7945 49.3518C64.096 49.0749 63.8601 48.6359 63.5811 48.4431C63.1504 48.1806 62.814 48.679 62.4919 48.8985Z" fill="#CEF1F2"/>
    <path d="M17.0889 51.2821C20.2848 51.2821 23.4786 51.2821 26.6745 51.2821C26.576 51.7601 26.4776 52.2359 26.3812 52.7159C24.2376 52.718 22.094 52.7242 19.9525 52.7098C19.5648 52.718 19.1648 52.6954 18.7894 52.8144C18.5001 53.079 18.4981 53.598 18.7996 53.8565C19.173 53.9693 19.5689 53.9467 19.9545 53.957C22.0099 53.9406 24.0673 53.9508 26.1227 53.9488C25.9114 54.9908 25.696 56.0308 25.4786 57.0729C23.136 57.079 20.7935 57.0749 18.4509 57.0749C17.9894 55.1467 17.5422 53.2144 17.0889 51.2821Z" fill="#612B15"/>
    <path d="M34.5474 60.763C35.731 59.6902 36.771 58.4717 37.7741 57.2307C38.4756 59.1569 39.0767 61.1179 39.7187 63.0646C39.932 63.6697 40.0408 64.3261 40.3956 64.8697C41.2428 65.3989 42.1823 65.7599 43.0541 66.244C40.4633 68.923 37.0767 70.7056 34.6438 73.5507C33.2059 75.1835 32.1433 77.0933 30.9023 78.8676C29.8684 80.3097 28.6479 81.6102 27.3597 82.8246C24.6192 82.6974 21.8808 82.5517 19.1402 82.482C17.8766 82.4081 16.609 82.3753 15.3515 82.5374C15.9649 81.8625 16.3833 80.9005 17.3208 80.6174C18.6479 80.121 19.9669 79.602 21.29 79.0933C22.0038 78.8122 22.769 78.601 23.372 78.1066C24.5167 77.1958 25.649 76.2687 26.8449 75.4256C27.9936 74.5292 29.3495 73.8194 30.1372 72.5456C31.1218 71.0276 31.9608 69.3948 32.5618 67.6882C32.8284 67.0256 31.6572 66.601 31.4397 67.2799C30.5495 69.1815 29.8049 71.2389 28.3095 72.7671C26.9187 73.8502 25.4479 74.8307 24.0818 75.9466C23.2818 76.5292 22.5864 77.2943 21.6325 77.6266C20.0038 78.2297 18.3895 78.8717 16.7608 79.4728C16.3382 79.6287 15.8972 79.8092 15.6264 80.1907C14.9843 81.001 14.3505 81.8174 13.7187 82.6358C12.8531 82.7199 11.9854 82.763 11.1177 82.7794C13.2141 80.2666 15.3823 77.8112 17.6818 75.481C18.5556 74.5702 19.6613 73.9323 20.8264 73.4666C22.6623 72.5476 24.4654 71.5528 26.1843 70.4246C27.0828 69.8523 27.8849 69.1097 28.4387 68.1928C29.3351 66.7199 30.1843 65.1979 31.3392 63.9035C32.3402 62.7876 33.4356 61.764 34.5474 60.763Z" fill="#CEF1F2"/>
    <path d="M16.7221 58.3057C20.1539 58.3118 23.5878 58.3057 27.0216 58.3098C26.9662 59.4421 27.1591 60.6052 26.8801 61.7169C26.5765 62.7528 25.5283 63.4482 24.4657 63.4298C22.6832 63.4359 20.9006 63.4523 19.118 63.4195C17.9529 63.4072 16.8924 62.4677 16.7611 61.3067C16.6667 60.3098 16.7406 59.3067 16.7221 58.3057Z" fill="#F8D0BF"/>
    <path d="M48.7176 73.4872C49.2365 72.72 49.4519 71.8072 49.7206 70.9333C50.0673 71.9569 50.3996 73.0257 51.1278 73.8523C51.6447 74.478 52.3791 74.8575 53.0888 75.2267C53.7617 76.9703 54.537 78.6728 55.1483 80.439C54.9022 80.6564 54.4817 80.839 54.6294 81.2472C54.9452 82.318 55.4499 83.3251 55.897 84.3467C55.6652 84.558 55.1668 84.7118 55.2714 85.1159C55.5955 86.2421 56.1145 87.3026 56.5001 88.4103C54.3114 87.3641 51.9093 86.759 49.4765 86.7898C47.1709 86.9867 44.9083 87.5631 42.814 88.5498C43.2201 87.4605 43.6919 86.3939 44.0611 85.2923C44.2765 84.8944 43.8499 84.6277 43.6324 84.361C43.9791 83.3805 44.5309 82.4698 44.7524 81.4482C44.8858 81.0482 44.4632 80.8718 44.2314 80.6523C44.8652 79.2164 45.3247 77.7108 45.9688 76.2749C46.1801 75.8339 46.3032 75.2698 46.7955 75.0503C47.5073 74.6318 48.2437 74.1846 48.7176 73.4872Z" fill="#CEF1F2"/>
    <path d="M64.2498 77.1118C65.417 76.6831 66.2437 75.6821 66.5513 74.4923C66.8406 75.6677 67.6426 76.679 68.7872 77.1159C69.3924 78.2482 69.7185 79.4913 70.178 80.6851C70.0529 80.8718 69.9339 81.0626 69.819 81.2574C69.9934 82.0369 70.4098 82.7344 70.6519 83.4933C70.3031 84.4451 71.019 85.3436 71.2365 86.2482C69.2775 85.3621 67.056 84.9723 64.9308 85.3969C63.8683 85.5836 62.8508 85.9549 61.8354 86.3036C62.1144 85.5877 62.5493 84.9149 62.6724 84.1477C62.5965 84.0205 62.4426 83.7682 62.3667 83.641C62.6231 82.8821 62.8898 82.1292 63.1442 81.3703C63.0888 81.2349 62.9801 80.9641 62.9247 80.8287C63.4252 79.6103 63.7411 78.3282 64.2498 77.1118Z" fill="#CEF1F2"/>
  </g>
  <defs>
    <clipPath id="clip0_3540_28058">
      <rect width="104" height="102.974" fill="white" transform="translate(0.666504)"/>
    </clipPath>
  </defs>
</svg>