<svg xmlns="http://www.w3.org/2000/svg" width="105" height="104" viewBox="0 0 105 104" fill="none">
  <g clip-path="url(#clip0_3540_27998)">
    <path d="M72.1325 3.39293C72.5212 3.16549 73.1456 3.41567 73.0774 3.9243C73.1621 4.51563 72.424 4.64589 72.0332 4.40812C71.7665 4.15174 71.7768 3.56661 72.1325 3.39293Z" fill="#FDF0EA"/>
    <path d="M5.75209 8.10697C6.11392 7.84645 6.8107 7.9395 6.8231 8.475C6.95543 8.98777 6.3765 9.362 5.93817 9.13663C5.51431 9.02085 5.53706 8.4047 5.75209 8.10697Z" fill="#FDF0EA"/>
    <path d="M54.3346 8.31172C54.7564 8.05327 55.4056 8.35928 55.2919 8.89685C55.3147 9.46544 54.5228 9.63292 54.1899 9.25248C54.0369 8.95681 54.0245 8.50814 54.3346 8.31172Z" fill="#FDF0EA"/>
    <path d="M50.741 18.567C51.231 18.1101 51.6941 17.4588 52.4281 17.434C53.1745 17.4381 53.6418 18.0997 54.136 18.5608C65.7889 30.1042 77.4832 41.6041 89.1465 53.1351C86.3429 53.1517 83.5351 53.1144 80.7314 53.1517C79.8238 53.1206 79.1807 54.2495 79.7018 55.0042C80.1504 55.8271 81.2132 55.5046 81.972 55.5687C81.972 66.9591 81.972 78.3494 81.972 89.7377C82.0278 90.3787 81.6536 91.0507 81.0044 91.2078C80.2414 91.3629 79.4557 91.2553 78.6825 91.2822C73.2902 91.3112 67.8958 91.2285 62.5035 91.3236C63.13 91.0817 63.6655 90.4469 63.4567 89.7419C63.0597 88.7598 62.4332 87.8914 61.9432 86.9568C64.0211 86.9672 65.6173 85.065 65.8902 83.1194C66.188 81.2916 65.547 79.2509 64.0563 78.0951C63.1672 77.4169 62.0259 77.1585 60.926 77.1688C56.8466 77.1544 52.7693 77.1316 48.6899 77.1213C47.4887 73.7924 46.2481 70.4781 45.051 67.1472C44.5547 65.9066 45.0944 64.3808 46.2233 63.6881C47.0255 63.1898 47.9766 62.9417 48.9174 62.9066C49.8044 62.8776 50.8009 63.2767 51.14 64.1595C52.2276 66.8226 53.2428 69.5187 54.3179 72.188C53.861 72.2335 53.3482 72.1653 52.9574 72.4568C52.331 72.8786 52.2483 73.9434 52.883 74.3921C53.2159 74.6774 53.6749 74.6898 54.0926 74.696C57.6054 74.6877 61.1182 74.6981 64.6311 74.6898C65.3113 74.6608 66.0598 74.94 66.3885 75.5747C66.8641 76.4266 67.1866 77.3528 67.6291 78.2233C68.8469 80.9918 70.1846 83.7045 71.3963 86.4771C71.9028 87.5544 70.3562 88.6812 69.4403 88.0237C68.7208 87.6081 68.727 86.564 67.9765 86.1835C67.1535 85.7555 66.0164 86.5123 66.2231 87.4593C66.6242 89.0348 67.9702 90.389 69.6098 90.6082C71.2598 90.8832 72.9759 89.8969 73.6458 88.3752C74.1565 87.3703 74.0097 86.1629 73.5217 85.1787C71.9256 81.6865 70.3418 78.1882 68.7208 74.7063C68.0695 73.2859 66.6263 72.2356 65.0405 72.219C62.3485 72.1942 59.6585 72.2169 56.9686 72.2087C55.8107 69.2872 54.6798 66.3553 53.5178 63.4359C52.8789 61.8748 51.4626 60.6115 49.7299 60.4978C50.2137 59.3379 49.9718 58.0291 49.4922 56.9105C48.8574 55.4074 48.5493 53.6479 47.2405 52.5438C45.4624 50.8153 42.4541 50.9062 40.5705 52.4156C39.731 50.898 38.017 49.9365 36.2802 50.0585C35.079 50.1929 33.857 50.5982 32.9969 51.4831C31.7377 52.6368 31.2291 54.5018 31.6902 56.1393C33.8053 64.3477 35.9577 72.5457 38.0811 80.752C38.3478 81.823 38.6807 82.8754 38.997 83.9319C39.3692 85.2655 40.5167 86.2993 41.8234 86.6963C41.3355 87.7404 40.5932 88.6564 40.1838 89.7377C39.9812 90.4428 40.5064 91.0817 41.1349 91.3236C35.5256 91.2223 29.912 91.3236 24.3027 91.274C23.4942 91.2988 22.8036 90.5627 22.9008 89.7543C22.8988 78.3598 22.8988 66.9632 22.9008 55.5666C23.6886 55.5459 24.4846 55.6307 25.2662 55.5046C26.0167 55.2399 26.2751 54.173 25.7396 53.5858C25.4026 53.1496 24.8113 53.1289 24.3089 53.133C21.4432 53.1413 18.5796 53.1372 15.7139 53.1351C27.3896 41.6124 39.0839 30.1062 50.741 18.567ZM50.0421 34.2104C49.1138 34.6177 49.1779 36.1354 50.1538 36.4393C51.5949 36.5489 53.0505 36.4972 54.4937 36.4703C55.4406 36.4186 55.8252 35.0891 55.1677 34.4606C54.5578 33.861 53.6149 34.1153 52.8499 34.0616C51.9174 34.1194 50.9436 33.9189 50.0421 34.2104ZM61.9866 41.6227C58.2526 42.2058 55.3683 45.8655 55.5378 49.6161C55.573 51.7147 56.4744 53.7926 58.0148 55.2213C59.6151 56.7307 61.8502 57.5019 64.0377 57.4109C66.3038 57.2207 68.4995 56.0773 69.8828 54.262C71.481 52.1509 71.9524 49.2088 71.0138 46.7214C70.5196 45.2514 69.5085 44.0026 68.3114 43.0391C66.5374 41.6848 64.1679 41.201 61.9866 41.6227Z" fill="#FDF0EA"/>
    <path d="M29.7652 21.8193C30.3007 21.3066 31.3097 21.7739 31.2622 22.5203C31.3407 23.2749 30.3193 23.7753 29.7735 23.2605C29.3227 22.9152 29.331 22.1729 29.7652 21.8193Z" fill="#FDF0EA"/>
    <path d="M98.2022 28.4232C98.6054 28.0966 99.3621 28.3426 99.267 28.9298C99.3021 29.517 98.5371 29.6555 98.165 29.3413C98.0016 29.058 97.983 28.6817 98.2022 28.4232Z" fill="#FDF0EA"/>
    <path d="M72.7405 28.4357C73.9707 28.4253 75.2009 28.4315 76.4332 28.4315C76.4332 31.322 76.4353 34.2146 76.4311 37.1072C75.1947 35.8997 73.9583 34.6943 72.7363 33.4744C72.7487 31.7934 72.7446 30.1146 72.7405 28.4357Z" fill="#FDF0EA"/>
    <path d="M62.4761 43.9963C63.9627 43.7482 65.5837 44.081 66.8077 44.9763C67.9015 45.8799 68.7657 47.1432 68.9684 48.5698C69.1875 49.9675 68.834 51.4438 68.0193 52.6016C67.0414 54.0489 65.317 54.8863 63.5947 54.9793C62.1412 54.9359 60.6876 54.3818 59.6373 53.3645C58.6449 52.3783 58.0411 51.0116 57.9915 49.6119C57.8592 46.9922 59.8792 44.4325 62.4761 43.9963ZM62.8483 45.9605C62.4389 46.2024 62.2756 46.6924 62.2859 47.1473C62.2756 47.9723 62.2611 48.7993 62.2962 49.6243C62.3024 50.2942 62.9082 50.7015 63.3011 51.1626C63.8593 51.7001 64.3742 52.554 65.2674 52.4548C66.1564 52.401 66.632 51.1646 66.0406 50.5071C65.6416 49.8476 64.6574 49.4671 64.7381 48.5967C64.7112 47.9082 64.8332 47.201 64.6388 46.5311C64.401 45.8261 63.452 45.5346 62.8483 45.9605Z" fill="#FDF0EA"/>
    <path d="M34.2679 53.803C34.8613 52.6741 36.4079 52.2047 37.5471 52.734C38.277 53.0648 38.5271 53.8898 38.7339 54.5969C38.9551 55.273 38.7835 56.0008 38.9634 56.6852C39.2653 57.8906 39.8028 59.0195 40.2164 60.1898C40.7043 61.5937 41.7815 62.826 43.2123 63.3098C42.4494 64.6 42.0979 66.1879 42.621 67.6352C43.785 71.0095 45.0773 74.3404 46.2558 77.7126C46.475 78.2647 46.6466 78.9098 47.1697 79.2592C47.6142 79.5941 48.1931 79.5983 48.7245 79.6066C52.6488 79.5962 56.571 79.6107 60.4933 79.5983C61.2852 79.5755 62.1846 79.6231 62.7821 80.2186C63.6381 81.2255 63.7787 82.861 62.9558 83.9278C62.5795 84.422 61.9199 84.5274 61.3368 84.515C55.3408 84.5026 49.3448 84.5274 43.3488 84.5026C42.1826 84.4985 41.2605 83.5701 41.0889 82.4516C38.736 73.5816 36.4657 64.6909 34.1397 55.8147C33.9371 55.1573 33.9226 54.415 34.2679 53.803Z" fill="#FDF0EA"/>
    <path d="M43.7814 53.7967C44.716 53.7327 45.725 54.2206 46.093 55.1159C46.4755 56.007 46.7774 56.9312 47.1413 57.8286C47.3294 58.3558 47.6147 58.9306 47.3997 59.4971C46.8394 61.3538 43.8455 61.666 42.9048 59.9727C42.4127 59.0836 42.1687 58.087 41.7738 57.1566C41.4843 56.4681 41.2114 55.6452 41.6373 54.9525C42.0488 54.1668 42.9482 53.8608 43.7814 53.7967Z" fill="#FDF0EA"/>
    <path d="M42.4845 90.5627C43.1792 89.378 43.845 88.1787 44.5376 86.994C49.3923 86.9961 54.245 86.9981 59.0976 86.9919C59.7965 88.1767 60.4602 89.3821 61.159 90.5668C61.343 90.9204 61.678 91.1457 62.0233 91.3277C58.7606 91.2264 55.4938 91.3112 52.2311 91.2843C48.7059 91.2946 45.1786 91.2595 41.6533 91.3008C41.9883 91.1271 42.3025 90.9018 42.4845 90.5627Z" fill="#FDF0EA"/>
    <path d="M71.9585 2.81603C72.7214 2.42112 73.7097 3.07241 73.687 3.92219C73.7118 4.86088 72.4692 5.46255 71.7455 4.85881C70.9867 4.38947 71.15 3.14064 71.9585 2.81603ZM72.1321 3.39289C71.7765 3.56657 71.7662 4.1517 72.0329 4.40808C72.4237 4.64585 73.1618 4.51559 73.077 3.92426C73.1453 3.41563 72.5209 3.16545 72.1321 3.39289Z" fill="#E86731"/>
    <path d="M5.57235 7.54466C6.30015 7.0381 7.40838 7.61082 7.42699 8.49162C7.56965 9.44271 6.36838 10.1602 5.58683 9.62466C4.79907 9.22561 4.81975 7.96645 5.57235 7.54466ZM5.75223 8.10704C5.5372 8.40478 5.51446 9.02092 5.93832 9.1367C6.37665 9.36207 6.95557 8.98784 6.82325 8.47507C6.81084 7.93957 6.11406 7.84653 5.75223 8.10704Z" fill="#E86731"/>
    <path d="M54.19 7.77416C54.862 7.44748 55.8441 7.88787 55.8833 8.67976C56.057 9.61018 54.9281 10.4269 54.1155 9.90585C53.2678 9.49233 53.3175 8.12978 54.19 7.77416ZM54.3347 8.31173C54.0246 8.50815 54.037 8.95682 54.19 9.25249C54.5229 9.63292 55.3148 9.46545 55.292 8.89686C55.4057 8.35928 54.7565 8.05328 54.3347 8.31173Z" fill="#E86731"/>
    <path d="M48.9241 16.9501C49.656 16.243 50.3652 15.4118 51.3866 15.1327C52.7016 14.744 54.1799 15.1389 55.1269 16.1313C60.1883 21.0936 65.2353 26.0723 70.2782 31.0532C70.4147 29.641 69.8667 27.9332 70.9502 26.7836C71.8723 25.7663 73.3382 26.0248 74.5623 26C75.6643 26.0537 76.9069 25.7746 77.8663 26.4755C78.6085 26.9573 78.9352 27.8649 78.898 28.723C78.8939 32.3247 78.9063 35.9265 78.8897 39.5282C82.6445 43.2768 86.4447 46.9798 90.2077 50.7201C90.6792 51.2101 91.2333 51.6381 91.5827 52.2295C92.3518 53.5796 91.2312 55.5542 89.6681 55.5521C87.9251 55.5914 86.1801 55.5562 84.435 55.5686C84.435 66.9549 84.433 78.3411 84.435 89.7294C84.4433 90.2546 84.3523 90.7756 84.2345 91.2863C87.2159 91.276 90.1974 91.2905 93.1768 91.2781C93.5945 91.2946 94.0845 91.2284 94.4091 91.553C95.017 92.0038 95.0356 93.0045 94.4401 93.4718C94.1651 93.7633 93.7475 93.7674 93.3774 93.7695C66.0252 93.7612 38.6709 93.7695 11.3166 93.7654C10.5847 93.8419 9.90651 93.1513 9.99748 92.4214C10.0326 91.7639 10.657 91.2181 11.3166 91.2843C14.4221 91.2822 17.5297 91.2801 20.6373 91.2863C20.5174 90.7818 20.4264 90.2691 20.4368 89.748C20.4388 78.3556 20.4388 66.9611 20.4368 55.5686C18.6959 55.5562 16.9549 55.5893 15.214 55.5542C13.6489 55.5645 12.5241 53.5961 13.2788 52.2419C13.5724 51.725 14.0417 51.3445 14.4531 50.9269C25.9407 39.5985 37.42 28.2619 48.9241 16.9501ZM50.7415 18.567C39.0844 30.1062 27.3901 41.6124 15.7144 53.1351C18.5801 53.1371 21.4437 53.1413 24.3094 53.133C24.8118 53.1289 25.4031 53.1496 25.7401 53.5858C26.2757 54.173 26.0172 55.2399 25.2667 55.5045C24.4851 55.6307 23.6891 55.5459 22.9013 55.5666C22.8993 66.9631 22.8993 78.3597 22.9013 89.7542C22.8042 90.5627 23.4947 91.2987 24.3032 91.2739C29.9126 91.3235 35.5261 91.2222 41.1355 91.3235C40.5069 91.0816 39.9817 90.4427 40.1844 89.7377C40.5937 88.6563 41.336 87.7404 41.824 86.6963C40.5172 86.2993 39.3697 85.2655 38.9976 83.9319C38.6812 82.8754 38.3483 81.823 38.0816 80.7519C35.9582 72.5457 33.8058 64.3476 31.6907 56.1393C31.2296 54.5018 31.7382 52.6368 32.9974 51.4831C33.8575 50.5981 35.0795 50.1929 36.2807 50.0585C38.0175 49.9365 39.7316 50.8979 40.571 52.4156C39.3532 53.4411 38.6357 55.0931 38.9645 56.6851C38.7846 56.0008 38.9562 55.273 38.735 54.5969C38.5282 53.8897 38.278 53.0648 37.5482 52.734C36.4089 52.2047 34.8624 52.674 34.269 53.8029C33.9237 54.4149 33.9382 55.1572 34.1408 55.8147C36.4668 64.6909 38.737 73.5815 41.09 82.4515C41.2616 83.5701 42.1837 84.4984 43.3498 84.5026C49.3459 84.5274 55.3419 84.5026 61.3379 84.515C61.921 84.5274 62.5805 84.4219 62.9568 83.9278C63.7798 82.8609 63.6392 81.2254 62.7832 80.2185C62.1856 79.623 61.2862 79.5755 60.4943 79.5982C56.5721 79.6106 52.6499 79.5961 48.7256 79.6065C48.1942 79.5982 47.6153 79.5941 47.1708 79.2591C46.6477 78.9097 46.4761 78.2646 46.2569 77.7126C45.0784 74.3403 43.7861 71.0094 42.6221 67.6351C42.099 66.1878 42.4504 64.5999 43.2134 63.3097C45.68 64.1471 48.769 63.012 49.7304 60.4978C51.4631 60.6115 52.8794 61.8748 53.5183 63.4358C54.6803 66.3553 55.8112 69.2871 56.9691 72.2086C59.659 72.2169 62.349 72.1942 65.041 72.219C66.6268 72.2355 68.07 73.2859 68.7213 74.7063C70.3423 78.1881 71.9261 81.6865 73.5223 85.1787C74.0102 86.1628 74.157 87.3703 73.6463 88.3752C72.9764 89.8969 71.2603 90.8831 69.6104 90.6082C67.9708 90.389 66.6248 89.0347 66.2236 87.4592C66.0169 86.5123 67.1541 85.7555 67.977 86.1835C68.7275 86.5639 68.7213 87.6081 69.4408 88.0237C70.3568 88.6812 71.9033 87.5543 71.3968 86.4771C70.1852 83.7045 68.8474 80.9918 67.6296 78.2233C67.1871 77.3528 66.8646 76.4265 66.3891 75.5747C66.0603 74.9399 65.3118 74.6608 64.6316 74.6897C61.1188 74.698 57.6059 74.6877 54.0931 74.6959C53.6754 74.6897 53.2164 74.6773 52.8835 74.392C52.2488 73.9433 52.3315 72.8785 52.958 72.4567C53.3487 72.1652 53.8615 72.2335 54.3184 72.188C53.2433 69.5187 52.2281 66.8225 51.1405 64.1595C50.8015 63.2766 49.8049 62.8776 48.9179 62.9065C47.9771 62.9417 47.026 63.1898 46.2238 63.6881C45.0949 64.3807 44.5553 65.9066 45.0515 67.1472C46.2486 70.4781 47.4892 73.7924 48.6904 77.1212C52.7698 77.1316 56.8471 77.1543 60.9265 77.1688C62.0264 77.1585 63.1677 77.4169 64.0568 78.0951C65.5475 79.2509 66.1885 81.2916 65.8908 83.1193C65.6178 85.0649 64.0217 86.9671 61.9437 86.9568C62.4338 87.8913 63.0602 88.7597 63.4572 89.7418C63.666 90.4469 63.1305 91.0816 62.504 91.3235C67.8963 91.2284 73.2907 91.3111 78.683 91.2822C79.4563 91.2553 80.2419 91.3628 81.0049 91.2078C81.6541 91.0506 82.0283 90.3787 81.9725 89.7377C81.9725 78.3494 81.9725 66.959 81.9725 55.5686C81.2137 55.5045 80.151 55.8271 79.7023 55.0042C79.1813 54.2495 79.8243 53.1206 80.732 53.1516C83.5356 53.1144 86.3434 53.1516 89.1471 53.1351C77.4838 41.6041 65.7895 30.1041 54.1365 18.5608C53.6423 18.0997 53.1751 17.4381 52.4287 17.4339C51.6947 17.4587 51.2315 18.11 50.7415 18.567ZM72.7407 28.4356C72.7448 30.1145 72.749 31.7934 72.7366 33.4743C73.9585 34.6942 75.1949 35.8996 76.4314 37.1071C76.4355 34.2145 76.4334 31.322 76.4334 28.4315C75.2011 28.4315 73.9709 28.4253 72.7407 28.4356ZM42.4856 90.5627C42.3036 90.9018 41.9894 91.1271 41.6544 91.3008C45.1797 91.2594 48.707 91.2946 52.2322 91.2843C55.4949 91.3111 58.7617 91.2264 62.0244 91.3277C61.6791 91.1457 61.3441 90.9204 61.1601 90.5668C60.4613 89.3821 59.7976 88.1767 59.0987 86.9919C54.2461 86.9981 49.3934 86.9961 44.5387 86.994C43.8461 88.1787 43.1803 89.3779 42.4856 90.5627Z" fill="#E86731"/>
    <path d="M29.7858 20.7958C31.2145 20.2376 32.8044 22.0074 31.965 23.3493C31.4398 24.5692 29.5707 24.7222 28.876 23.5809C28.1089 22.6318 28.6568 21.1473 29.7858 20.7958ZM29.7651 21.8193C29.3309 22.1728 29.3226 22.9151 29.7733 23.2604C30.3192 23.7752 31.3406 23.2748 31.262 22.5202C31.3096 21.7738 30.3006 21.3065 29.7651 21.8193Z" fill="#E86731"/>
    <path d="M98.1826 27.7698C99.0345 27.346 100.079 28.2309 99.8512 29.1427C99.7064 30.0214 98.5155 30.4411 97.8621 29.8229C97.1798 29.2833 97.3659 28.0737 98.1826 27.7698ZM98.2033 28.4232C97.9841 28.6816 98.0027 29.0579 98.1661 29.3412C98.5382 29.6555 99.3032 29.5169 99.2681 28.9297C99.3632 28.3425 98.6065 28.0965 98.2033 28.4232Z" fill="#E86731"/>
    <path d="M0.945312 91.6957C1.39191 91.491 1.8778 91.1375 2.38436 91.3773C3.38714 91.6295 3.47812 93.2133 2.53529 93.6082C1.99358 93.9473 1.41259 93.6062 0.945312 93.3167C0.963921 92.775 0.965988 92.2353 0.945312 91.6957Z" fill="#E86731"/>
    <path d="M5.12771 91.431C5.96922 91.1705 6.89137 91.2718 7.75976 91.3318C8.90107 91.491 9.07889 93.2857 7.98099 93.6516C7.11467 93.8439 6.19046 93.8088 5.31586 93.6888C4.26759 93.4511 4.15801 91.8466 5.12771 91.431Z" fill="#E86731"/>
    <path d="M96.7536 91.4599C97.5785 91.1498 98.5027 91.2883 99.367 91.3194C100.523 91.3979 100.814 93.1843 99.7412 93.6164C98.8935 93.879 97.9652 93.7757 97.0906 93.7136C96.0154 93.5503 95.8004 91.9396 96.7536 91.4599Z" fill="#E86731"/>
    <path d="M101.901 91.6461C102.547 91.2306 103.307 91.2285 103.922 91.7061C103.922 92.2395 103.924 92.773 103.924 93.3085C103.431 93.6662 102.749 93.9577 102.201 93.5277C101.519 93.1307 101.645 92.2644 101.901 91.6461Z" fill="#E86731"/>
    <path d="M31.7839 4.52798C32.2718 4.34396 32.3153 4.90428 32.4848 5.20408C32.6047 4.95804 32.7267 4.71199 32.8487 4.46802C32.9314 4.49696 33.0968 4.55486 33.1795 4.5838C32.9934 4.84845 32.8073 5.11311 32.6213 5.37569C32.8528 5.34261 33.318 5.27645 33.5517 5.2413C33.5248 5.33641 33.471 5.52869 33.4462 5.6238C33.2498 5.60106 32.859 5.55764 32.6626 5.53696C32.8342 5.7582 33.0058 5.97943 33.1774 6.20066C33.0906 6.25442 32.919 6.364 32.8322 6.41776C32.7267 6.15931 32.6213 5.90086 32.5179 5.64241C32.3669 5.9112 32.2656 6.22961 32.001 6.41156C31.6329 6.10555 32.2284 5.81402 32.3194 5.52869C32.1106 5.55557 31.695 5.60726 31.4861 5.63207C31.36 4.97251 32.092 5.3943 32.3814 5.37156C32.1747 5.09657 31.9741 4.81537 31.7839 4.52798Z" fill="#62D3D4"/>
    <path d="M92.6412 6.74241C92.8025 6.62869 92.9638 6.51497 93.1271 6.40332C93.2904 6.78376 93.4703 7.15799 93.6833 7.51569C93.8342 7.15592 93.981 6.79616 94.1278 6.43433C94.3015 6.51704 94.4752 6.59767 94.6489 6.68038C94.3821 7.04221 94.1092 7.3999 93.8363 7.75553C94.256 7.68523 94.6799 7.617 95.0996 7.54877C95.0975 7.73692 95.0955 7.92714 95.0955 8.11529C94.6757 8.0636 94.256 8.01191 93.8404 7.95815C94.1154 8.30964 94.3863 8.66527 94.6427 9.03123C94.5145 9.08499 94.2539 9.18837 94.1237 9.24213C93.979 8.88857 93.8342 8.53501 93.6854 8.18352C93.4352 8.50193 93.2656 8.86996 93.1106 9.24006C92.9948 9.19044 92.7611 9.09326 92.6433 9.04364C92.8811 8.67354 93.1354 8.31585 93.4 7.96229C93.0031 8.01398 92.6061 8.06567 92.2091 8.11529C92.2091 7.97469 92.2091 7.69143 92.207 7.54877C92.544 7.53636 93.0093 7.77207 93.2904 7.60666C93.1726 7.29445 92.848 7.0236 92.6412 6.74241Z" fill="#62D3D4"/>
    <path d="M76.4253 19.3009C76.6134 19.1872 76.8016 19.0755 76.9918 18.9639C77.1862 19.4002 77.3908 19.8343 77.6038 20.2623C77.792 19.8054 77.9904 19.3505 78.2034 18.9039C78.3378 19.0011 78.6025 19.1913 78.7369 19.2885C78.4267 19.6855 78.1145 20.0825 77.8044 20.4794C78.2944 20.405 78.7865 20.3326 79.2786 20.2623C79.2786 20.4298 79.2786 20.7627 79.2765 20.9302C78.7885 20.8619 78.3006 20.7937 77.8126 20.7234C78.1248 21.1245 78.4391 21.5236 78.7513 21.9247C78.5425 22.0219 78.3316 22.119 78.1228 22.2162C77.9574 21.7862 77.7858 21.3602 77.6079 20.9384C77.366 21.352 77.1572 21.7841 76.967 22.2245C76.8326 22.148 76.5597 21.9929 76.4253 21.9164C76.7209 21.5215 77.0166 21.1266 77.3143 20.7296C76.8491 20.7978 76.386 20.8661 75.9229 20.9343C75.9229 20.7648 75.9229 20.4277 75.9229 20.2603C76.3963 20.3326 76.8677 20.4029 77.3433 20.4732C77.0435 20.0763 76.7375 19.6855 76.4253 19.3009Z" fill="#62D3D4"/>
    <path d="M11.118 27.9601C11.3103 28.0821 11.5005 28.2041 11.6907 28.326C11.3909 28.7189 11.089 29.1097 10.7851 29.4984C11.2689 29.4488 11.7548 29.4074 12.2407 29.3723C12.2386 29.5253 12.2345 29.8313 12.2324 29.9843C11.7589 29.945 11.2834 29.8974 10.8099 29.8416C11.0994 30.2365 11.3971 30.6252 11.699 31.0119C11.548 31.0925 11.2441 31.2496 11.0932 31.3282C10.9009 30.8775 10.7127 30.4267 10.5225 29.9739C10.2951 30.4371 10.078 30.9043 9.87122 31.3778C9.73476 31.2868 9.46184 31.109 9.32745 31.0181C9.62725 30.6169 9.93325 30.2179 10.2434 29.8251C9.76578 29.8767 9.29023 29.9284 8.81261 29.9801C8.81261 29.8251 8.81055 29.517 8.81055 29.3619C9.28403 29.4095 9.7575 29.4612 10.231 29.5128C9.92498 29.1221 9.62518 28.7272 9.33778 28.324C9.47838 28.2454 9.75957 28.0903 9.90017 28.0118C10.109 28.4398 10.3054 28.8719 10.5018 29.3061C10.7251 28.8657 10.9298 28.417 11.118 27.9601Z" fill="#62D3D4"/>
    <path d="M50.0426 34.2104C50.9441 33.9189 51.9179 34.1194 52.8504 34.0615C53.6154 34.1153 54.5582 33.861 55.1682 34.4606C55.8257 35.0891 55.4411 36.4186 54.4941 36.4703C53.051 36.4971 51.5954 36.5488 50.1543 36.4392C49.1783 36.1353 49.1143 34.6177 50.0426 34.2104Z" fill="#62D3D4"/>
    <path d="M61.9872 41.6226C64.1685 41.2008 66.538 41.6847 68.312 43.0389C69.5091 44.0024 70.5201 45.2513 71.0143 46.7213C71.953 49.2086 71.4816 52.1508 69.8833 54.2618C68.5001 56.0772 66.3043 57.2206 64.0382 57.4108C61.8507 57.5018 59.6157 56.7305 58.0153 55.2212C56.475 53.7925 55.5735 51.7146 55.5384 49.616C55.3688 45.8653 58.2531 42.2057 61.9872 41.6226ZM62.4772 43.9962C59.8803 44.4325 57.8603 46.9922 57.9926 49.6118C58.0422 51.0116 58.6459 52.3783 59.6384 53.3645C60.6887 54.3818 62.1423 54.9359 63.5958 54.9793C65.3181 54.8863 67.0425 54.0489 68.0204 52.6016C68.8351 51.4437 69.1886 49.9675 68.9694 48.5698C68.7668 47.1431 67.9026 45.8798 66.8088 44.9763C65.5848 44.081 63.9638 43.7481 62.4772 43.9962Z" fill="#62D3D4"/>
    <path d="M62.8487 45.9605C63.4525 45.5346 64.4015 45.8261 64.6393 46.5312C64.8336 47.2011 64.7116 47.9082 64.7385 48.5967C64.6579 49.4672 65.642 49.8476 66.0411 50.5072C66.6324 51.1647 66.1569 52.4011 65.2678 52.4548C64.3746 52.5541 63.8598 51.7002 63.3015 51.1626C62.9087 50.7015 62.3029 50.2942 62.2967 49.6243C62.2615 48.7993 62.276 47.9723 62.2863 47.1473C62.276 46.6925 62.4393 46.2024 62.8487 45.9605Z" fill="#62D3D4"/>
    <path d="M40.571 52.4155C42.4546 50.9062 45.463 50.8152 47.2411 52.5437C48.5499 53.6478 48.8579 55.4073 49.4927 56.9105C49.9724 58.029 50.2143 59.3378 49.7305 60.4977C48.769 63.0119 45.68 64.1471 43.2134 63.3097C41.7826 62.8259 40.7054 61.5936 40.2175 60.1897C39.8039 59.0194 39.2664 57.8905 38.9645 56.6851C38.6358 55.0931 39.3532 53.441 40.571 52.4155ZM43.782 53.7967C42.9488 53.8608 42.0494 54.1668 41.6379 54.9525C41.212 55.6451 41.4849 56.468 41.7744 57.1565C42.1693 58.0869 42.4132 59.0835 42.9053 59.9726C43.8461 61.6659 46.84 61.3537 47.4003 59.497C47.6153 58.9305 47.33 58.3557 47.1418 57.8285C46.7779 56.9311 46.4761 56.0069 46.0936 55.1158C45.7255 54.2205 44.7165 53.7326 43.782 53.7967Z" fill="#E86731"/>
    <path d="M31.3911 96.2113C33.0928 96.1761 34.7985 96.1865 36.5002 96.2072C37.3251 96.2051 37.9578 97.2389 37.5154 97.9626C37.2776 98.5063 36.6408 98.709 36.0866 98.68C34.6455 98.6717 33.2044 98.68 31.7633 98.6779C31.2257 98.7028 30.6365 98.4546 30.4194 97.9357C30.0245 97.2327 30.5951 96.2402 31.3911 96.2113Z" fill="#612B15"/>
    <path d="M38.9232 97.5966C38.7868 96.8316 39.4959 96.1534 40.2403 96.201C48.2377 96.1824 56.2352 96.2051 64.2326 96.1886C64.673 96.1969 65.1672 96.1845 65.5228 96.4946C66.1059 96.9536 66.1245 98.006 65.4732 98.4133C65.1217 98.6842 64.6565 98.6697 64.2368 98.6821C61.1354 98.6697 58.0361 98.68 54.9367 98.6759C54.9367 99.0874 54.9347 99.5009 54.9347 99.9144C56.7852 99.933 58.6357 99.8834 60.482 99.9351C61.3173 99.9371 61.9707 100.956 61.4951 101.688C61.2512 102.224 60.6164 102.371 60.0809 102.348C55.189 102.346 50.2971 102.344 45.4051 102.348C44.8614 102.377 44.2307 102.216 43.9847 101.678C43.5133 100.934 44.1914 99.9227 45.0309 99.9309C46.6643 99.8875 48.3018 99.9309 49.9373 99.9144C49.9352 99.5009 49.9352 99.0874 49.9373 98.6759C46.7677 98.678 43.598 98.6759 40.4305 98.678C39.7627 98.7338 38.9522 98.343 38.9232 97.5966Z" fill="#612B15"/>
    <path d="M68.2084 96.2237C69.9142 96.1576 71.6282 96.201 73.336 96.201C74.1879 96.1452 74.8764 97.1748 74.4567 97.9316C74.2355 98.4547 73.6421 98.7049 73.1024 98.678C71.5869 98.6738 70.0734 98.6862 68.5578 98.6718C67.9272 98.6925 67.3276 98.2272 67.2242 97.5966C67.1209 96.9805 67.5923 96.3209 68.2084 96.2237Z" fill="#612B15"/>
  </g>
  <defs>
    <clipPath id="clip0_3540_27998">
      <rect width="103.793" height="104" fill="white" transform="translate(0.333008)"/>
    </clipPath>
  </defs>
</svg>